<svg width="1080" height="1920" viewBox="0 0 1080 1920" fill="none" xmlns="http://www.w3.org/2000/svg">
<g clip-path="url(#clip0_73_716)">
<g opacity="0.1">
<g style="mix-blend-mode:hard-light" opacity="0.11">
<path d="M765.78 1207.36C768.806 1198.07 781.982 1198.07 785.008 1207.36L989.868 1836.48C991.222 1840.64 995.103 1843.45 999.482 1843.45H1662.42C1672.22 1843.45 1676.29 1855.95 1668.37 1861.7L1132.03 2250.51C1128.49 2253.08 1127.01 2257.63 1128.36 2261.79L1333.22 2890.91C1336.25 2900.2 1325.59 2907.93 1317.67 2902.18L781.336 2513.37C777.793 2510.8 772.995 2510.8 769.452 2513.37L233.121 2902.18C225.198 2907.93 214.539 2900.2 217.565 2890.91L422.425 2261.79C423.779 2257.63 422.296 2253.08 418.753 2250.51L-117.578 1861.7C-125.501 1855.95 -121.429 1843.45 -111.636 1843.45H551.306C555.685 1843.45 559.566 1840.64 560.92 1836.48L765.78 1207.36Z" fill="#134D8C"/>
</g>
<g style="mix-blend-mode:hard-light" opacity="0.11">
<path d="M829.384 1492.88C831.392 1486.7 840.135 1486.7 842.143 1492.88L978.079 1911.25C978.977 1914.01 981.552 1915.88 984.458 1915.88H1424.35C1430.85 1915.88 1433.55 1924.2 1428.3 1928.02L1072.41 2186.58C1070.06 2188.29 1069.08 2191.32 1069.98 2194.08L1205.91 2612.45C1207.92 2618.63 1200.85 2623.77 1195.59 2619.95L839.706 2361.38C837.356 2359.67 834.172 2359.67 831.821 2361.38L475.937 2619.95C470.68 2623.77 463.607 2618.63 465.615 2612.45L601.551 2194.08C602.449 2191.32 601.465 2188.29 599.114 2186.58L243.23 1928.02C237.973 1924.2 240.675 1915.88 247.173 1915.88H687.069C689.975 1915.88 692.551 1914.01 693.449 1911.25L829.384 1492.88Z" fill="#134D8C"/>
</g>
<g style="mix-blend-mode:hard-light" opacity="0.11">
<path d="M913.231 1392.26C915.239 1386.08 923.982 1386.08 925.99 1392.26L1061.93 1810.63C1062.82 1813.39 1065.4 1815.27 1068.3 1815.27H1508.2C1514.7 1815.27 1517.4 1823.58 1512.14 1827.4L1156.26 2085.97C1153.91 2087.67 1152.93 2090.7 1153.82 2093.46L1289.76 2511.83C1291.77 2518.01 1284.69 2523.15 1279.44 2519.33L923.553 2260.77C921.202 2259.06 918.019 2259.06 915.668 2260.77L559.784 2519.33C554.527 2523.15 547.454 2518.01 549.462 2511.83L685.397 2093.46C686.295 2090.7 685.312 2087.67 682.961 2085.97L327.077 1827.4C321.82 1823.58 324.521 1815.27 331.019 1815.27H770.916C773.822 1815.27 776.397 1813.39 777.295 1810.63L913.231 1392.26Z" fill="#134D8C"/>
</g>
<g style="mix-blend-mode:hard-light" opacity="0.11">
<path d="M638.214 1392.26C640.222 1386.08 648.965 1386.08 650.973 1392.26L786.909 1810.63C787.807 1813.39 790.382 1815.27 793.288 1815.27H1233.18C1239.68 1815.27 1242.38 1823.58 1237.13 1827.4L881.244 2085.97C878.893 2087.67 877.909 2090.7 878.807 2093.46L1014.74 2511.83C1016.75 2518.01 1009.68 2523.15 1004.42 2519.33L648.537 2260.77C646.186 2259.06 643.002 2259.06 640.651 2260.77L284.767 2519.33C279.51 2523.15 272.437 2518.01 274.445 2511.83L410.381 2093.46C411.279 2090.7 410.295 2087.67 407.944 2085.97L52.0601 1827.4C46.8032 1823.58 49.5049 1815.27 56.0028 1815.27H495.899C498.805 1815.27 501.381 1813.39 502.279 1810.63L638.214 1392.26Z" fill="#134D8C"/>
</g>
<g style="mix-blend-mode:hard-light" opacity="0.11">
<path d="M632.869 1545.88C634.33 1539.55 643.04 1538.79 645.579 1544.77L817.46 1949.7C818.596 1952.37 821.324 1954.01 824.219 1953.76L1262.44 1915.42C1268.92 1914.85 1272.33 1922.9 1267.43 1927.16L935.433 2215.76C933.24 2217.67 932.524 2220.77 933.659 2223.45L1105.54 2628.37C1108.08 2634.35 1101.48 2640.09 1095.91 2636.74L718.846 2410.18C716.355 2408.68 713.184 2408.96 710.991 2410.87L378.997 2699.46C374.093 2703.73 366.598 2699.22 368.06 2692.89L467.015 2264.27C467.669 2261.44 466.425 2258.51 463.934 2257.01L86.8693 2030.45C81.2995 2027.1 83.2662 2018.58 89.7394 2018.02L527.962 1979.68C530.857 1979.42 533.26 1977.34 533.913 1974.5L632.869 1545.88Z" fill="#134D8C"/>
</g>
<g style="mix-blend-mode:hard-light" opacity="0.11">
<path d="M792.492 1657.22C794.5 1651.04 803.243 1651.04 805.251 1657.22L941.186 2075.59C942.084 2078.35 944.66 2080.22 947.566 2080.22H1387.46C1393.96 2080.22 1396.66 2088.54 1391.4 2092.36L1035.52 2350.92C1033.17 2352.63 1032.19 2355.66 1033.08 2358.42L1169.02 2776.79C1171.03 2782.97 1163.95 2788.11 1158.7 2784.29L802.814 2525.72C800.463 2524.01 797.279 2524.01 794.929 2525.72L439.045 2784.29C433.788 2788.11 426.715 2782.97 428.723 2776.79L564.658 2358.42C565.556 2355.66 564.572 2352.63 562.221 2350.92L206.337 2092.36C201.081 2088.54 203.782 2080.22 210.28 2080.22H650.177C653.083 2080.22 655.658 2078.35 656.556 2075.59L792.492 1657.22Z" fill="#134D8C"/>
</g>
<g style="mix-blend-mode:hard-light" opacity="0.11">
<path d="M913.231 1543.19C915.239 1537.01 923.982 1537.01 925.99 1543.19L1061.93 1961.55C1062.82 1964.32 1065.4 1966.19 1068.3 1966.19H1508.2C1514.7 1966.19 1517.4 1974.5 1512.14 1978.32L1156.26 2236.89C1153.91 2238.6 1152.93 2241.62 1153.82 2244.39L1289.76 2662.75C1291.77 2668.93 1284.69 2674.07 1279.44 2670.25L923.553 2411.69C921.202 2409.98 918.019 2409.98 915.668 2411.69L559.784 2670.25C554.527 2674.07 547.454 2668.93 549.462 2662.75L685.397 2244.39C686.295 2241.62 685.312 2238.6 682.961 2236.89L327.077 1978.32C321.82 1974.5 324.521 1966.19 331.019 1966.19H770.916C773.822 1966.19 776.397 1964.32 777.295 1961.55L913.231 1543.19Z" fill="#134D8C"/>
</g>
<g style="mix-blend-mode:hard-light" opacity="0.11">
<path d="M878.379 1447.51C880.918 1441.53 889.628 1442.29 891.089 1448.62L990.045 1877.24C990.698 1880.07 993.101 1882.16 995.996 1882.42L1434.22 1920.76C1440.69 1921.32 1442.66 1929.84 1437.09 1933.19L1060.02 2159.75C1057.53 2161.25 1056.29 2164.18 1056.94 2167.01L1155.9 2595.63C1157.36 2601.96 1149.87 2606.47 1144.96 2602.2L812.967 2313.61C810.774 2311.7 807.602 2311.42 805.112 2312.92L428.047 2539.48C422.477 2542.83 415.878 2537.09 418.417 2531.11L590.299 2126.18C591.434 2123.51 590.718 2120.41 588.525 2118.5L256.531 1829.9C251.627 1825.64 255.043 1817.59 261.516 1818.16L699.739 1856.5C702.633 1856.75 705.362 1855.11 706.498 1852.44L878.379 1447.51Z" fill="#134D8C"/>
</g>
<g style="mix-blend-mode:hard-light" opacity="0.11">
<path d="M752.246 1445.93C754.254 1439.75 762.997 1439.75 765.005 1445.93L900.94 1864.29C901.838 1867.06 904.414 1868.93 907.319 1868.93H1347.22C1353.71 1868.93 1356.42 1877.24 1351.16 1881.06L995.275 2139.63C992.924 2141.34 991.94 2144.36 992.838 2147.13L1128.77 2565.49C1130.78 2571.67 1123.71 2576.81 1118.45 2572.99L762.568 2314.43C760.217 2312.72 757.033 2312.72 754.682 2314.43L398.799 2572.99C393.542 2576.81 386.468 2571.67 388.476 2565.49L524.412 2147.13C525.31 2144.36 524.326 2141.34 521.975 2139.63L166.091 1881.06C160.834 1877.24 163.536 1868.93 170.034 1868.93H609.931C612.837 1868.93 615.412 1867.06 616.31 1864.29L752.246 1445.93Z" fill="#134D8C"/>
</g>
<g style="mix-blend-mode:hard-light" opacity="0.11">
<path d="M681.815 1543.19C683.823 1537.01 692.566 1537.01 694.574 1543.19L830.509 1961.55C831.407 1964.32 833.983 1966.19 836.889 1966.19H1276.79C1283.28 1966.19 1285.99 1974.5 1280.73 1978.32L924.844 2236.89C922.493 2238.6 921.51 2241.62 922.408 2244.39L1058.34 2662.75C1060.35 2668.93 1053.28 2674.07 1048.02 2670.25L692.137 2411.69C689.786 2409.98 686.603 2409.98 684.252 2411.69L328.368 2670.25C323.111 2674.07 316.038 2668.93 318.046 2662.75L453.981 2244.39C454.879 2241.62 453.896 2238.6 451.545 2236.89L95.6607 1978.32C90.4038 1974.5 93.1055 1966.19 99.6034 1966.19H539.5C542.406 1966.19 544.981 1964.32 545.879 1961.55L681.815 1543.19Z" fill="#134D8C"/>
</g>
<g style="mix-blend-mode:hard-light" opacity="0.11">
<path d="M638.214 1543.19C640.222 1537.01 648.965 1537.01 650.973 1543.19L786.909 1961.55C787.807 1964.32 790.382 1966.19 793.288 1966.19H1233.18C1239.68 1966.19 1242.38 1974.5 1237.13 1978.32L881.244 2236.89C878.893 2238.6 877.909 2241.62 878.807 2244.39L1014.74 2662.75C1016.75 2668.93 1009.68 2674.07 1004.42 2670.25L648.537 2411.69C646.186 2409.98 643.002 2409.98 640.651 2411.69L284.767 2670.25C279.51 2674.07 272.437 2668.93 274.445 2662.75L410.381 2244.39C411.279 2241.62 410.295 2238.6 407.944 2236.89L52.0601 1978.32C46.8032 1974.5 49.5049 1966.19 56.0028 1966.19H495.899C498.805 1966.19 501.381 1964.32 502.279 1961.55L638.214 1543.19Z" fill="#134D8C"/>
</g>
<g style="mix-blend-mode:hard-light" opacity="0.11">
<path d="M632.869 1394.96C634.33 1388.63 643.04 1387.86 645.579 1393.85L817.46 1798.77C818.596 1801.45 821.324 1803.09 824.219 1802.83L1262.44 1764.5C1268.92 1763.93 1272.33 1771.98 1267.43 1776.24L935.433 2064.84C933.24 2066.74 932.524 2069.85 933.659 2072.52L1105.54 2477.45C1108.08 2483.43 1101.48 2489.17 1095.91 2485.82L718.846 2259.26C716.355 2257.76 713.184 2258.04 710.991 2259.94L378.997 2548.54C374.093 2552.8 366.598 2548.3 368.06 2541.97L467.015 2113.35C467.669 2110.52 466.425 2107.59 463.934 2106.09L86.8693 1879.53C81.2995 1876.18 83.2662 1867.66 89.7394 1867.09L527.962 1828.75C530.857 1828.5 533.26 1826.41 533.913 1823.58L632.869 1394.96Z" fill="#134D8C"/>
</g>
<g style="mix-blend-mode:hard-light" opacity="0.11">
<path d="M792.492 1318.48C794.5 1312.3 803.243 1312.3 805.251 1318.48L941.186 1736.85C942.084 1739.61 944.66 1741.48 947.566 1741.48H1387.46C1393.96 1741.48 1396.66 1749.8 1391.4 1753.62L1035.52 2012.18C1033.17 2013.89 1032.19 2016.92 1033.08 2019.68L1169.02 2438.05C1171.03 2444.23 1163.95 2449.37 1158.7 2445.55L802.814 2186.98C800.463 2185.27 797.279 2185.27 794.929 2186.98L439.045 2445.55C433.788 2449.37 426.715 2444.23 428.723 2438.05L564.658 2019.68C565.556 2016.92 564.572 2013.89 562.221 2012.18L206.337 1753.62C201.081 1749.8 203.782 1741.48 210.28 1741.48H650.177C653.083 1741.48 655.658 1739.61 656.556 1736.85L792.492 1318.48Z" fill="#134D8C"/>
</g>
<g style="mix-blend-mode:hard-light" opacity="0.11">
<path d="M913.231 1392.26C915.239 1386.08 923.982 1386.08 925.99 1392.26L1061.93 1810.63C1062.82 1813.39 1065.4 1815.27 1068.3 1815.27H1508.2C1514.7 1815.27 1517.4 1823.58 1512.14 1827.4L1156.26 2085.97C1153.91 2087.67 1152.93 2090.7 1153.82 2093.46L1289.76 2511.83C1291.77 2518.01 1284.69 2523.15 1279.44 2519.33L923.553 2260.77C921.202 2259.06 918.019 2259.06 915.668 2260.77L559.784 2519.33C554.527 2523.15 547.454 2518.01 549.462 2511.83L685.397 2093.46C686.295 2090.7 685.312 2087.67 682.961 2085.97L327.077 1827.4C321.82 1823.58 324.521 1815.27 331.019 1815.27H770.916C773.822 1815.27 776.397 1813.39 777.295 1810.63L913.231 1392.26Z" fill="#134D8C"/>
</g>
<g style="mix-blend-mode:hard-light" opacity="0.11">
<path d="M913.231 1482.82C915.239 1476.64 923.982 1476.64 925.99 1482.82L1061.93 1901.19C1062.82 1903.95 1065.4 1905.82 1068.3 1905.82H1508.2C1514.7 1905.82 1517.4 1914.14 1512.14 1917.95L1156.26 2176.52C1153.91 2178.23 1152.93 2181.26 1153.82 2184.02L1289.76 2602.39C1291.77 2608.57 1284.69 2613.7 1279.44 2609.88L923.553 2351.32C921.202 2349.61 918.019 2349.61 915.668 2351.32L559.784 2609.88C554.527 2613.7 547.454 2608.57 549.462 2602.39L685.397 2184.02C686.295 2181.25 685.312 2178.23 682.961 2176.52L327.077 1917.95C321.82 1914.14 324.521 1905.82 331.019 1905.82H770.916C773.822 1905.82 776.397 1903.95 777.295 1901.19L913.231 1482.82Z" fill="#134D8C"/>
</g>
<g style="mix-blend-mode:hard-light" opacity="0.11">
<path d="M859.57 1586.79C861.578 1580.61 870.321 1580.61 872.329 1586.79L1008.26 2005.16C1009.16 2007.92 1011.74 2009.79 1014.64 2009.79H1454.54C1461.04 2009.79 1463.74 2018.11 1458.48 2021.93L1102.6 2280.49C1100.25 2282.2 1099.26 2285.23 1100.16 2287.99L1236.1 2706.36C1238.11 2712.54 1231.03 2717.67 1225.78 2713.86L869.892 2455.29C867.541 2453.58 864.358 2453.58 862.007 2455.29L506.123 2713.86C500.866 2717.67 493.793 2712.54 495.801 2706.36L631.736 2287.99C632.634 2285.23 631.65 2282.2 629.299 2280.49L273.416 2021.93C268.159 2018.11 270.86 2009.79 277.358 2009.79H717.255C720.161 2009.79 722.736 2007.92 723.634 2005.16L859.57 1586.79Z" fill="#134D8C"/>
</g>
<g style="mix-blend-mode:hard-light" opacity="0.11">
<path d="M801.24 1658.8C803.779 1652.82 812.489 1653.58 813.951 1659.91L912.906 2088.54C913.56 2091.37 915.962 2093.46 918.857 2093.71L1357.08 2132.05C1363.55 2132.62 1365.52 2141.13 1359.95 2144.48L982.885 2371.04C980.394 2372.54 979.15 2375.47 979.804 2378.3L1078.76 2806.93C1080.22 2813.26 1072.73 2817.76 1067.82 2813.5L735.828 2524.9C733.635 2522.99 730.464 2522.71 727.973 2524.21L350.908 2750.77C345.338 2754.12 338.74 2748.39 341.279 2742.4L513.16 2337.48C514.295 2334.8 513.579 2331.7 511.386 2329.79L179.392 2041.2C174.488 2036.93 177.904 2028.88 184.377 2029.45L622.6 2067.79C625.495 2068.04 628.224 2066.4 629.359 2063.73L801.24 1658.8Z" fill="#134D8C"/>
</g>
<g style="mix-blend-mode:hard-light" opacity="0.11">
<path d="M608.03 1586.79C610.038 1580.61 618.781 1580.61 620.789 1586.79L756.724 2005.16C757.622 2007.92 760.198 2009.79 763.104 2009.79H1203C1209.5 2009.79 1212.2 2018.11 1206.94 2021.93L851.059 2280.49C848.708 2282.2 847.725 2285.23 848.623 2287.99L984.558 2706.36C986.566 2712.54 979.493 2717.67 974.236 2713.86L618.352 2455.29C616.001 2453.58 612.818 2453.58 610.467 2455.29L254.583 2713.86C249.326 2717.67 242.253 2712.54 244.261 2706.36L380.196 2287.99C381.094 2285.23 380.11 2282.2 377.759 2280.49L21.8755 2021.93C16.6186 2018.11 19.3203 2009.79 25.8182 2009.79H465.715C468.621 2009.79 471.196 2007.92 472.094 2005.16L608.03 1586.79Z" fill="#134D8C"/>
</g>
<g style="mix-blend-mode:hard-light" opacity="0.11">
<path d="M638.214 1492.88C640.222 1486.7 648.965 1486.7 650.973 1492.88L786.909 1911.25C787.807 1914.01 790.382 1915.88 793.288 1915.88H1233.18C1239.68 1915.88 1242.38 1924.2 1237.13 1928.02L881.244 2186.58C878.893 2188.29 877.909 2191.32 878.807 2194.08L1014.74 2612.45C1016.75 2618.63 1009.68 2623.77 1004.42 2619.95L648.537 2361.38C646.186 2359.67 643.002 2359.67 640.651 2361.38L284.767 2619.95C279.51 2623.77 272.437 2618.63 274.445 2612.45L410.381 2194.08C411.279 2191.32 410.295 2188.29 407.944 2186.58L52.0601 1928.02C46.8032 1924.2 49.5049 1915.88 56.0028 1915.88H495.899C498.805 1915.88 501.381 1914.01 502.279 1911.25L638.214 1492.88Z" fill="#134D8C"/>
</g>
<g style="mix-blend-mode:hard-light" opacity="0.11">
<path d="M681.815 1445.93C683.823 1439.75 692.566 1439.75 694.574 1445.93L830.509 1864.29C831.407 1867.06 833.983 1868.93 836.889 1868.93H1276.79C1283.28 1868.93 1285.99 1877.24 1280.73 1881.06L924.844 2139.63C922.493 2141.34 921.51 2144.36 922.408 2147.13L1058.34 2565.49C1060.35 2571.67 1053.28 2576.81 1048.02 2572.99L692.137 2314.43C689.786 2312.72 686.603 2312.72 684.252 2314.43L328.368 2572.99C323.111 2576.81 316.038 2571.67 318.046 2565.49L453.981 2147.13C454.879 2144.36 453.896 2141.34 451.545 2139.63L95.6607 1881.06C90.4038 1877.24 93.1055 1868.93 99.6034 1868.93H539.5C542.406 1868.93 544.981 1867.06 545.879 1864.29L681.815 1445.93Z" fill="#134D8C"/>
</g>
<g style="mix-blend-mode:hard-light" opacity="0.11">
<path d="M792.492 1482.82C794.5 1476.64 803.243 1476.64 805.251 1482.82L941.186 1901.19C942.084 1903.95 944.66 1905.82 947.566 1905.82H1387.46C1393.96 1905.82 1396.66 1914.14 1391.4 1917.95L1035.52 2176.52C1033.17 2178.23 1032.19 2181.26 1033.08 2184.02L1169.02 2602.39C1171.03 2608.57 1163.95 2613.7 1158.7 2609.88L802.814 2351.32C800.463 2349.61 797.279 2349.61 794.929 2351.32L439.045 2609.88C433.788 2613.7 426.715 2608.57 428.723 2602.39L564.658 2184.02C565.556 2181.25 564.572 2178.23 562.221 2176.52L206.337 1917.95C201.081 1914.14 203.782 1905.82 210.28 1905.82H650.177C653.083 1905.82 655.658 1903.95 656.556 1901.19L792.492 1482.82Z" fill="#134D8C"/>
</g>
<g style="mix-blend-mode:hard-light" opacity="0.11">
<path d="M810.623 1545.88C812.085 1539.55 820.795 1538.79 823.334 1544.77L995.215 1949.7C996.351 1952.37 999.079 1954.01 1001.97 1953.76L1440.2 1915.42C1446.67 1914.85 1450.09 1922.9 1445.18 1927.16L1113.19 2215.76C1110.99 2217.67 1110.28 2220.77 1111.41 2223.45L1283.3 2628.37C1285.83 2634.35 1279.24 2640.09 1273.67 2636.74L896.601 2410.18C894.11 2408.68 890.939 2408.96 888.746 2410.87L556.752 2699.46C551.848 2703.73 544.353 2699.22 545.815 2692.89L644.77 2264.27C645.424 2261.44 644.18 2258.51 641.689 2257.01L264.624 2030.45C259.054 2027.1 261.021 2018.58 267.494 2018.02L705.717 1979.68C708.612 1979.42 711.014 1977.34 711.668 1974.5L810.623 1545.88Z" fill="#134D8C"/>
</g>
<g style="mix-blend-mode:hard-light" opacity="0.11">
<path d="M792.492 1586.79C794.5 1580.61 803.243 1580.61 805.251 1586.79L941.186 2005.16C942.084 2007.92 944.66 2009.79 947.566 2009.79H1387.46C1393.96 2009.79 1396.66 2018.11 1391.4 2021.93L1035.52 2280.49C1033.17 2282.2 1032.19 2285.23 1033.08 2287.99L1169.02 2706.36C1171.03 2712.54 1163.95 2717.67 1158.7 2713.86L802.814 2455.29C800.463 2453.58 797.279 2453.58 794.929 2455.29L439.045 2713.86C433.788 2717.67 426.715 2712.54 428.723 2706.36L564.658 2287.99C565.556 2285.23 564.572 2282.2 562.221 2280.49L206.337 2021.93C201.081 2018.11 203.782 2009.79 210.28 2009.79H650.177C653.083 2009.79 655.658 2007.92 656.556 2005.16L792.492 1586.79Z" fill="#134D8C"/>
</g>
<g style="mix-blend-mode:hard-light" opacity="0.11">
<path d="M774.409 1588.37C776.948 1582.39 785.658 1583.15 787.12 1589.48L886.075 2018.11C886.729 2020.94 889.131 2023.03 892.026 2023.28L1330.25 2061.62C1336.72 2062.18 1338.69 2070.7 1333.12 2074.05L956.054 2300.61C953.563 2302.11 952.319 2305.04 952.973 2307.87L1051.93 2736.49C1053.39 2742.83 1045.9 2747.33 1040.99 2743.07L708.997 2454.47C706.804 2452.56 703.633 2452.28 701.142 2453.78L324.077 2680.34C318.507 2683.69 311.909 2677.95 314.448 2671.97L486.329 2267.05C487.464 2264.37 486.748 2261.27 484.555 2259.36L152.561 1970.76C147.657 1966.5 151.073 1958.45 157.546 1959.02L595.769 1997.36C598.664 1997.61 601.392 1995.97 602.528 1993.3L774.409 1588.37Z" fill="#134D8C"/>
</g>
<g style="mix-blend-mode:hard-light" opacity="0.11">
<path d="M725.415 1492.88C727.423 1486.7 736.166 1486.7 738.173 1492.88L874.109 1911.25C875.007 1914.01 877.582 1915.88 880.488 1915.88H1320.39C1326.88 1915.88 1329.58 1924.2 1324.33 1928.02L968.444 2186.58C966.093 2188.29 965.109 2191.32 966.007 2194.08L1101.94 2612.45C1103.95 2618.63 1096.88 2623.77 1091.62 2619.95L735.737 2361.38C733.386 2359.67 730.202 2359.67 727.851 2361.38L371.967 2619.95C366.711 2623.77 359.637 2618.63 361.645 2612.45L497.581 2194.08C498.479 2191.32 497.495 2188.29 495.144 2186.58L139.26 1928.02C134.003 1924.2 136.705 1915.88 143.203 1915.88H583.1C586.006 1915.88 588.581 1914.01 589.479 1911.25L725.415 1492.88Z" fill="#134D8C"/>
</g>
<g style="mix-blend-mode:hard-light" opacity="0.11">
<path d="M725.415 1392.26C727.423 1386.08 736.166 1386.08 738.173 1392.26L874.109 1810.63C875.007 1813.39 877.582 1815.27 880.488 1815.27H1320.39C1326.88 1815.27 1329.58 1823.58 1324.33 1827.4L968.444 2085.97C966.093 2087.67 965.109 2090.7 966.007 2093.46L1101.94 2511.83C1103.95 2518.01 1096.88 2523.15 1091.62 2519.33L735.737 2260.77C733.386 2259.06 730.202 2259.06 727.851 2260.77L371.967 2519.33C366.711 2523.15 359.637 2518.01 361.645 2511.83L497.581 2093.46C498.479 2090.7 497.495 2087.67 495.144 2085.97L139.26 1827.4C134.003 1823.58 136.705 1815.27 143.203 1815.27H583.1C586.006 1815.27 588.581 1813.39 589.479 1810.63L725.415 1392.26Z" fill="#134D8C"/>
</g>
<g style="mix-blend-mode:hard-light" opacity="0.11">
<path d="M752.246 1392.26C754.254 1386.08 762.997 1386.08 765.005 1392.26L900.94 1810.63C901.838 1813.39 904.414 1815.27 907.319 1815.27H1347.22C1353.71 1815.27 1356.42 1823.58 1351.16 1827.4L995.275 2085.97C992.924 2087.67 991.94 2090.7 992.838 2093.46L1128.77 2511.83C1130.78 2518.01 1123.71 2523.15 1118.45 2519.33L762.568 2260.77C760.217 2259.06 757.033 2259.06 754.682 2260.77L398.799 2519.33C393.542 2523.15 386.468 2518.01 388.476 2511.83L524.412 2093.46C525.31 2090.7 524.326 2087.67 521.975 2085.97L166.091 1827.4C160.834 1823.58 163.536 1815.27 170.034 1815.27H609.931C612.837 1815.27 615.412 1813.39 616.31 1810.63L752.246 1392.26Z" fill="#134D8C"/>
</g>
<g style="mix-blend-mode:hard-light" opacity="0.11">
<path d="M913.231 1482.82C915.239 1476.64 923.982 1476.64 925.99 1482.82L1061.93 1901.19C1062.82 1903.95 1065.4 1905.82 1068.3 1905.82H1508.2C1514.7 1905.82 1517.4 1914.14 1512.14 1917.95L1156.26 2176.52C1153.91 2178.23 1152.93 2181.26 1153.82 2184.02L1289.76 2602.39C1291.77 2608.57 1284.69 2613.7 1279.44 2609.88L923.553 2351.32C921.202 2349.61 918.019 2349.61 915.668 2351.32L559.784 2609.88C554.527 2613.7 547.454 2608.57 549.462 2602.39L685.397 2184.02C686.295 2181.25 685.312 2178.23 682.961 2176.52L327.077 1917.95C321.82 1914.14 324.521 1905.82 331.019 1905.82H770.916C773.822 1905.82 776.397 1903.95 777.295 1901.19L913.231 1482.82Z" fill="#134D8C"/>
</g>
<g style="mix-blend-mode:hard-light" opacity="0.11">
<path d="M792.492 1586.79C794.5 1580.61 803.243 1580.61 805.251 1586.79L941.186 2005.16C942.084 2007.92 944.66 2009.79 947.566 2009.79H1387.46C1393.96 2009.79 1396.66 2018.11 1391.4 2021.93L1035.52 2280.49C1033.17 2282.2 1032.19 2285.23 1033.08 2287.99L1169.02 2706.36C1171.03 2712.54 1163.95 2717.67 1158.7 2713.86L802.814 2455.29C800.463 2453.58 797.279 2453.58 794.929 2455.29L439.045 2713.86C433.788 2717.67 426.715 2712.54 428.723 2706.36L564.658 2287.99C565.556 2285.23 564.572 2282.2 562.221 2280.49L206.337 2021.93C201.081 2018.11 203.782 2009.79 210.28 2009.79H650.177C653.083 2009.79 655.658 2007.92 656.556 2005.16L792.492 1586.79Z" fill="#134D8C"/>
</g>
<g style="mix-blend-mode:hard-light" opacity="0.11">
<path d="M681.815 1586.79C683.823 1580.61 692.566 1580.61 694.574 1586.79L830.509 2005.16C831.407 2007.92 833.983 2009.79 836.889 2009.79H1276.79C1283.28 2009.79 1285.99 2018.11 1280.73 2021.93L924.844 2280.49C922.493 2282.2 921.51 2285.23 922.408 2287.99L1058.34 2706.36C1060.35 2712.54 1053.28 2717.67 1048.02 2713.86L692.137 2455.29C689.786 2453.58 686.603 2453.58 684.252 2455.29L328.368 2713.86C323.111 2717.67 316.038 2712.54 318.046 2706.36L453.981 2287.99C454.879 2285.23 453.896 2282.2 451.545 2280.49L95.6607 2021.93C90.4038 2018.11 93.1055 2009.79 99.6034 2009.79H539.5C542.406 2009.79 544.981 2007.92 545.879 2005.16L681.815 1586.79Z" fill="#134D8C"/>
</g>
<g style="mix-blend-mode:hard-light" opacity="0.11">
<path d="M638.214 1586.79C640.222 1580.61 648.965 1580.61 650.973 1586.79L786.909 2005.16C787.807 2007.92 790.382 2009.79 793.288 2009.79H1233.18C1239.68 2009.79 1242.38 2018.11 1237.13 2021.93L881.244 2280.49C878.893 2282.2 877.909 2285.23 878.807 2287.99L1014.74 2706.36C1016.75 2712.54 1009.68 2717.67 1004.42 2713.86L648.537 2455.29C646.186 2453.58 643.002 2453.58 640.651 2455.29L284.767 2713.86C279.51 2717.67 272.437 2712.54 274.445 2706.36L410.381 2287.99C411.279 2285.23 410.295 2282.2 407.944 2280.49L52.0601 2021.93C46.8032 2018.11 49.5049 2009.79 56.0028 2009.79H495.899C498.805 2009.79 501.381 2007.92 502.279 2005.16L638.214 1586.79Z" fill="#134D8C"/>
</g>
<g style="mix-blend-mode:hard-light" opacity="0.11">
<path d="M774.409 1658.8C776.948 1652.82 785.658 1653.58 787.12 1659.91L886.075 2088.54C886.729 2091.37 889.131 2093.46 892.026 2093.71L1330.25 2132.05C1336.72 2132.62 1338.69 2141.13 1333.12 2144.48L956.054 2371.04C953.563 2372.54 952.319 2375.47 952.973 2378.3L1051.93 2806.93C1053.39 2813.26 1045.9 2817.76 1040.99 2813.5L708.997 2524.9C706.804 2522.99 703.633 2522.71 701.142 2524.21L324.077 2750.77C318.507 2754.12 311.909 2748.39 314.448 2742.4L486.329 2337.48C487.464 2334.8 486.748 2331.7 484.555 2329.79L152.561 2041.2C147.657 2036.93 151.073 2028.88 157.546 2029.45L595.769 2067.79C598.664 2068.04 601.392 2066.4 602.528 2063.73L774.409 1658.8Z" fill="#134D8C"/>
</g>
<g style="mix-blend-mode:hard-light" opacity="0.11">
<path d="M829.384 1627.03C831.392 1620.85 840.135 1620.85 842.143 1627.03L978.079 2045.4C978.977 2048.17 981.552 2050.04 984.458 2050.04H1424.35C1430.85 2050.04 1433.55 2058.35 1428.3 2062.17L1072.41 2320.74C1070.06 2322.44 1069.08 2325.47 1069.98 2328.24L1205.91 2746.6C1207.92 2752.78 1200.85 2757.92 1195.59 2754.1L839.706 2495.54C837.356 2493.83 834.172 2493.83 831.821 2495.54L475.937 2754.1C470.68 2757.92 463.607 2752.78 465.615 2746.6L601.551 2328.23C602.449 2325.47 601.465 2322.44 599.114 2320.74L243.23 2062.17C237.973 2058.35 240.675 2050.04 247.173 2050.04H687.069C689.975 2050.04 692.551 2048.17 693.449 2045.4L829.384 1627.03Z" fill="#134D8C"/>
</g>
<g style="mix-blend-mode:hard-light" opacity="0.11">
<path d="M829.384 1492.88C831.392 1486.7 840.135 1486.7 842.143 1492.88L978.079 1911.25C978.977 1914.01 981.552 1915.88 984.458 1915.88H1424.35C1430.85 1915.88 1433.55 1924.2 1428.3 1928.02L1072.41 2186.58C1070.06 2188.29 1069.08 2191.32 1069.98 2194.08L1205.91 2612.45C1207.92 2618.63 1200.85 2623.77 1195.59 2619.95L839.706 2361.38C837.356 2359.67 834.172 2359.67 831.821 2361.38L475.937 2619.95C470.68 2623.77 463.607 2618.63 465.615 2612.45L601.551 2194.08C602.449 2191.32 601.465 2188.29 599.114 2186.58L243.23 1928.02C237.973 1924.2 240.675 1915.88 247.173 1915.88H687.069C689.975 1915.88 692.551 1914.01 693.449 1911.25L829.384 1492.88Z" fill="#134D8C"/>
</g>
<g style="mix-blend-mode:hard-light" opacity="0.11">
<path d="M725.415 1392.26C727.423 1386.08 736.166 1386.08 738.173 1392.26L874.109 1810.63C875.007 1813.39 877.582 1815.27 880.488 1815.27H1320.39C1326.88 1815.27 1329.58 1823.58 1324.33 1827.4L968.444 2085.97C966.093 2087.67 965.109 2090.7 966.007 2093.46L1101.94 2511.83C1103.95 2518.01 1096.88 2523.15 1091.62 2519.33L735.737 2260.77C733.386 2259.06 730.202 2259.06 727.851 2260.77L371.967 2519.33C366.711 2523.15 359.637 2518.01 361.645 2511.83L497.581 2093.46C498.479 2090.7 497.495 2087.67 495.144 2085.97L139.26 1827.4C134.003 1823.58 136.705 1815.27 143.203 1815.27H583.1C586.006 1815.27 588.581 1813.39 589.479 1810.63L725.415 1392.26Z" fill="#134D8C"/>
</g>
<g style="mix-blend-mode:hard-light" opacity="0.11">
<path d="M638.214 1358.73C640.222 1352.55 648.965 1352.55 650.973 1358.73L786.909 1777.09C787.807 1779.86 790.382 1781.73 793.288 1781.73H1233.18C1239.68 1781.73 1242.38 1790.04 1237.13 1793.86L881.244 2052.43C878.893 2054.14 877.909 2057.16 878.807 2059.93L1014.74 2478.29C1016.75 2484.47 1009.68 2489.61 1004.42 2485.79L648.537 2227.23C646.186 2225.52 643.002 2225.52 640.651 2227.23L284.767 2485.79C279.51 2489.61 272.437 2484.47 274.445 2478.29L410.381 2059.93C411.279 2057.16 410.295 2054.14 407.944 2052.43L52.0601 1793.86C46.8032 1790.04 49.5049 1781.73 56.0028 1781.73H495.899C498.805 1781.73 501.381 1779.86 502.279 1777.09L638.214 1358.73Z" fill="#134D8C"/>
</g>
<g style="mix-blend-mode:hard-light" opacity="0.11">
<path d="M681.815 1318.48C683.823 1312.3 692.566 1312.3 694.574 1318.48L830.509 1736.85C831.407 1739.61 833.983 1741.48 836.889 1741.48H1276.79C1283.28 1741.48 1285.99 1749.8 1280.73 1753.62L924.844 2012.18C922.493 2013.89 921.51 2016.92 922.408 2019.68L1058.34 2438.05C1060.35 2444.23 1053.28 2449.37 1048.02 2445.55L692.137 2186.98C689.786 2185.27 686.603 2185.27 684.252 2186.98L328.368 2445.55C323.111 2449.37 316.038 2444.23 318.046 2438.05L453.981 2019.68C454.879 2016.92 453.896 2013.89 451.545 2012.18L95.6607 1753.62C90.4038 1749.8 93.1055 1741.48 99.6034 1741.48H539.5C542.406 1741.48 544.981 1739.61 545.879 1736.85L681.815 1318.48Z" fill="#134D8C"/>
</g>
<g style="mix-blend-mode:hard-light" opacity="0.11">
<path d="M841.486 1320.06C844.025 1314.08 852.735 1314.84 854.197 1321.17L953.152 1749.8C953.806 1752.63 956.208 1754.72 959.103 1754.97L1397.33 1793.31C1403.8 1793.87 1405.77 1802.39 1400.2 1805.74L1023.13 2032.3C1020.64 2033.8 1019.4 2036.73 1020.05 2039.56L1119.01 2468.18C1120.47 2474.52 1112.97 2479.02 1108.07 2474.76L776.074 2186.16C773.881 2184.25 770.71 2183.97 768.219 2185.47L391.154 2412.03C385.584 2415.38 378.986 2409.64 381.525 2403.66L553.406 1998.74C554.541 1996.06 553.825 1992.96 551.632 1991.05L219.638 1702.45C214.734 1698.19 218.15 1690.14 224.623 1690.71L662.846 1729.05C665.741 1729.3 668.47 1727.66 669.605 1724.99L841.486 1320.06Z" fill="#134D8C"/>
</g>
<g style="mix-blend-mode:hard-light" opacity="0.11">
<path d="M859.57 1445.93C861.578 1439.75 870.321 1439.75 872.329 1445.93L1008.26 1864.29C1009.16 1867.06 1011.74 1868.93 1014.64 1868.93H1454.54C1461.04 1868.93 1463.74 1877.24 1458.48 1881.06L1102.6 2139.63C1100.25 2141.34 1099.26 2144.36 1100.16 2147.13L1236.1 2565.49C1238.11 2571.67 1231.03 2576.81 1225.78 2572.99L869.892 2314.43C867.541 2312.72 864.358 2312.72 862.007 2314.43L506.123 2572.99C500.866 2576.81 493.793 2571.67 495.801 2565.49L631.736 2147.13C632.634 2144.36 631.65 2141.34 629.299 2139.63L273.416 1881.06C268.159 1877.24 270.86 1868.93 277.358 1868.93H717.255C720.161 1868.93 722.736 1867.06 723.634 1864.29L859.57 1445.93Z" fill="#134D8C"/>
</g>
<g style="mix-blend-mode:hard-light" opacity="0.11">
<path d="M829.384 1482.82C831.392 1476.64 840.135 1476.64 842.143 1482.82L978.079 1901.19C978.977 1903.95 981.552 1905.82 984.458 1905.82H1424.35C1430.85 1905.82 1433.55 1914.14 1428.3 1917.95L1072.41 2176.52C1070.06 2178.23 1069.08 2181.26 1069.98 2184.02L1205.91 2602.39C1207.92 2608.57 1200.85 2613.7 1195.59 2609.88L839.706 2351.32C837.356 2349.61 834.172 2349.61 831.821 2351.32L475.937 2609.88C470.68 2613.7 463.607 2608.57 465.615 2602.39L601.551 2184.02C602.449 2181.25 601.465 2178.23 599.114 2176.52L243.23 1917.95C237.973 1914.14 240.675 1905.82 247.173 1905.82H687.069C689.975 1905.82 692.551 1903.95 693.449 1901.19L829.384 1482.82Z" fill="#134D8C"/>
</g>
<g style="mix-blend-mode:hard-light" opacity="0.11">
<path d="M792.492 1543.19C794.5 1537.01 803.243 1537.01 805.251 1543.19L941.186 1961.55C942.084 1964.32 944.66 1966.19 947.566 1966.19H1387.46C1393.96 1966.19 1396.66 1974.5 1391.4 1978.32L1035.52 2236.89C1033.17 2238.6 1032.19 2241.62 1033.08 2244.39L1169.02 2662.75C1171.03 2668.93 1163.95 2674.07 1158.7 2670.25L802.814 2411.69C800.463 2409.98 797.279 2409.98 794.929 2411.69L439.045 2670.25C433.788 2674.07 426.715 2668.93 428.723 2662.75L564.658 2244.39C565.556 2241.62 564.572 2238.6 562.221 2236.89L206.337 1978.32C201.081 1974.5 203.782 1966.19 210.28 1966.19H650.177C653.083 1966.19 655.658 1964.32 656.556 1961.55L792.492 1543.19Z" fill="#134D8C"/>
</g>
<g style="mix-blend-mode:hard-light" opacity="0.11">
<path d="M780.439 1448.62C781.901 1442.29 790.61 1441.53 793.149 1447.51L965.031 1852.44C966.166 1855.11 968.895 1856.75 971.79 1856.5L1410.01 1818.16C1416.49 1817.59 1419.9 1825.64 1415 1829.9L1083 2118.5C1080.81 2120.41 1080.09 2123.51 1081.23 2126.18L1253.11 2531.11C1255.65 2537.09 1249.05 2542.83 1243.48 2539.48L866.417 2312.92C863.926 2311.42 860.754 2311.7 858.561 2313.6L526.567 2602.2C521.663 2606.47 514.169 2601.96 515.631 2595.63L614.586 2167.01C615.239 2164.18 613.996 2161.25 611.505 2159.75L234.44 1933.19C228.87 1929.84 230.837 1921.32 237.31 1920.75L675.532 1882.42C678.427 1882.16 680.83 1880.07 681.484 1877.24L780.439 1448.62Z" fill="#134D8C"/>
</g>
<g style="mix-blend-mode:hard-light">
<path d="M850.221 1120.81L1027.42 1830.89C1028.7 1836 1033.12 1839.71 1038.38 1840.08L1768.93 1891.16C1778.76 1891.85 1781.96 1904.7 1773.61 1909.91L1152.58 2297.68C1148.11 2300.47 1145.94 2305.82 1147.22 2310.94L1324.42 3021.02C1326.8 3030.57 1315.57 3037.59 1308.02 3031.26L747.001 2560.83C742.963 2557.44 737.203 2557.04 732.733 2559.83L111.7 2947.6C103.346 2952.82 93.1973 2944.3 96.8851 2935.18L371.187 2256.67C373.162 2251.79 371.764 2246.19 367.726 2242.8L-193.296 1772.37C-200.839 1766.05 -195.878 1753.77 -186.052 1754.46L544.498 1805.54C549.756 1805.91 554.653 1802.85 556.627 1797.97L830.93 1119.46C834.619 1110.33 847.838 1111.26 850.221 1120.81Z" stroke="#FFCB00" stroke-width="2"/>
</g>
<g style="mix-blend-mode:hard-light">
<path d="M-88.7786 -1078.19L88.4239 -368.109C89.6995 -362.998 94.1233 -359.289 99.3811 -358.921L829.931 -307.836C839.757 -307.149 842.961 -294.301 834.611 -289.087L213.578 98.6833C209.108 101.474 206.945 106.825 208.22 111.936L385.423 822.019C387.805 831.565 376.57 838.585 369.023 832.257L-191.999 361.83C-196.037 358.444 -201.797 358.041 -206.267 360.832L-827.3 748.602C-835.654 753.819 -845.803 745.303 -842.115 736.181L-567.813 57.6708C-565.838 52.7865 -567.236 47.1872 -571.274 43.8012L-1132.3 -426.626C-1139.84 -432.952 -1134.88 -445.229 -1125.05 -444.542L-394.502 -393.457C-389.244 -393.089 -384.347 -396.147 -382.373 -401.031L-108.07 -1079.54C-104.381 -1088.67 -91.1616 -1087.74 -88.7786 -1078.19Z" stroke="#FFCB00" stroke-width="2"/>
</g>
<g style="mix-blend-mode:hard-light">
<path d="M1834.22 -276.192L2011.42 433.891C2012.7 439.002 2017.12 442.711 2022.38 443.079L2752.93 494.164C2762.76 494.851 2765.96 507.699 2757.61 512.913L2136.58 900.683C2132.11 903.474 2129.94 908.825 2131.22 913.936L2308.42 1624.02C2310.8 1633.57 2299.57 1640.59 2292.02 1634.26L1731 1163.83C1726.96 1160.44 1721.2 1160.04 1716.73 1162.83L1095.7 1550.6C1087.35 1555.82 1077.2 1547.3 1080.89 1538.18L1355.19 859.671C1357.16 854.786 1355.76 849.187 1351.73 845.801L790.704 375.374C783.161 369.048 788.122 356.771 797.948 357.458L1528.5 408.543C1533.76 408.911 1538.65 405.853 1540.63 400.969L1814.93 -277.541C1818.62 -286.666 1831.84 -285.741 1834.22 -276.192Z" stroke="#FFCB00" stroke-width="2"/>
</g>
</g>
</g>
<defs>
<clipPath id="clip0_73_716">
<rect width="1080" height="1920" fill="white"/>
</clipPath>
</defs>
</svg>
